# xmcd
#
# Track frame offsets:
# 150
# 9145
# 34032
# 53236
# 79012
# 100173
# 114297
# 143454
# 168691
# 196144
# 214706
# 240255
# 258843
#
# Disc length: 3939 seconds
#
#
# Revision: 0
# Processed by: cddbd v1.5.2PL0 Copyright (c) Steve Scherf et al.
# Submitted via: FreeRIP 2.91 
#
DISCID=950f610d
DTITLE=Dan Meyers - Greetings from Vicksburg
DYEAR=1999
DGENRE=Blues
TTITLE0=introduction
TTITLE1=greetings from vicksburg
TTITLE2=old soul revivial
TTITLE3=eyes of the storm
TTITLE4=mary by the moonlight
TTITLE5=slip away
TTITLE6=brazilian lullaby
TTITLE7=someone i used to know
TTITLE8=comprehend a dream
TTITLE9=without a trace
TTITLE10=september
TTITLE11=spoken from the heart
TTITLE12=cliffs of moher
EXTD=
EXTT0=
EXTT1=
EXTT2=
EXTT3=
EXTT4=
EXTT5=
EXTT6=
EXTT7=
EXTT8=
EXTT9=
EXTT10=
EXTT11=
EXTT12=
PLAYORDER=
